<?xml version="1.0" encoding="UTF-8" standalone="no"?><svg xmlns="http://www.w3.org/2000/svg" xmlns:xlink="http://www.w3.org/1999/xlink" contentScriptType="application/ecmascript" contentStyleType="text/css" height="884px" preserveAspectRatio="none" style="width:936px;height:884px;" version="1.1" viewBox="0 0 936 884" width="936px" zoomAndPan="magnify"><defs/><g><ellipse cx="112.6171" cy="761.47" fill="#F8F8F8" rx="55.3501" ry="13.47" style="stroke: #383838; stroke-width: 0.5;"/><text fill="#000000" font-family="Tahoma, sans-serif" font-size="12" font-weight="bold" lengthAdjust="spacingAndGlyphs" textLength="78" x="73.6171" y="764.9544">_document</text><ellipse cx="112.6432" cy="716.3774" fill="#F8F8F8" rx="50.3762" ry="12.8774" style="stroke: #383838; stroke-width: 0.5;"/><text fill="#000000" font-family="Tahoma, sans-serif" font-size="12" font-weight="bold" lengthAdjust="spacingAndGlyphs" textLength="67" x="79.1432" y="719.8618">app/page</text><ellipse cx="112.5513" cy="495.3774" fill="#F8F8F8" rx="31.2843" ry="12.8774" style="stroke: #383838; stroke-width: 0.5;"/><text fill="#000000" font-family="Tahoma, sans-serif" font-size="12" lengthAdjust="spacingAndGlyphs" textLength="40" x="92.5513" y="498.8618">button</text><ellipse cx="112.7093" cy="128.3885" fill="#F8F8F8" rx="52.4423" ry="12.8885" style="stroke: #383838; stroke-width: 0.5;"/><text fill="#000000" font-family="Tahoma, sans-serif" font-size="12" font-weight="bold" lengthAdjust="spacingAndGlyphs" textLength="70" x="77.7093" y="131.8728">button.cy</text><ellipse cx="462.6447" cy="659.6755" fill="#F8F8F8" rx="53.8777" ry="13.1755" style="stroke: #383838; stroke-width: 0.5;"/><text fill="#000000" font-family="Tahoma, sans-serif" font-size="12" lengthAdjust="spacingAndGlyphs" textLength="74" x="425.6447" y="663.1599">ButtonDown</text><ellipse cx="462.9956" cy="612.4457" fill="#F8F8F8" rx="67.7286" ry="15.9457" style="stroke: #383838; stroke-width: 0.5;"/><text fill="#000000" font-family="Tahoma, sans-serif" font-size="12" font-weight="bold" lengthAdjust="spacingAndGlyphs" textLength="109" x="408.4956" y="615.9301">ButtonDown.cy</text><ellipse cx="639.5721" cy="489.3774" fill="#F8F8F8" rx="43.3051" ry="12.8774" style="stroke: #383838; stroke-width: 0.5;"/><text fill="#000000" font-family="Tahoma, sans-serif" font-size="12" lengthAdjust="spacingAndGlyphs" textLength="57" x="611.0721" y="492.8618">ButtonUp</text><ellipse cx="639.9412" cy="444.7348" fill="#F8F8F8" rx="59.1742" ry="14.2348" style="stroke: #383838; stroke-width: 0.5;"/><text fill="#000000" font-family="Tahoma, sans-serif" font-size="12" font-weight="bold" lengthAdjust="spacingAndGlyphs" textLength="88" x="595.9412" y="448.2192">ButtonUp.cy</text><ellipse cx="113.001" cy="84.3774" fill="#F8F8F8" rx="36.234" ry="12.8774" style="stroke: #383838; stroke-width: 0.5;"/><text fill="#000000" font-family="Tahoma, sans-serif" font-size="12" lengthAdjust="spacingAndGlyphs" textLength="47" x="89.501" y="87.8618">contact</text><ellipse cx="112.9201" cy="361.6306" fill="#F8F8F8" rx="61.1531" ry="14.6306" style="stroke: #383838; stroke-width: 0.5;"/><text fill="#000000" font-family="Tahoma, sans-serif" font-size="12" font-weight="bold" lengthAdjust="spacingAndGlyphs" textLength="93" x="66.4201" y="365.115">contactForm</text><ellipse cx="112.6883" cy="176.2843" fill="#F8F8F8" rx="69.4213" ry="16.2843" style="stroke: #383838; stroke-width: 0.5;"/><text fill="#000000" font-family="Tahoma, sans-serif" font-size="12" font-weight="bold" lengthAdjust="spacingAndGlyphs" textLength="113" x="56.1883" y="179.7686">contactForm.cy</text><ellipse cx="112.9051" cy="542.5276" fill="#F8F8F8" rx="65.6381" ry="15.5276" style="stroke: #383838; stroke-width: 0.5;"/><text fill="#000000" font-family="Tahoma, sans-serif" font-size="12" font-weight="bold" lengthAdjust="spacingAndGlyphs" textLength="104" x="60.9051" y="546.012">continue/page</text><ellipse cx="112.7792" cy="315.3774" fill="#F8F8F8" rx="44.0122" ry="12.8774" style="stroke: #383838; stroke-width: 0.5;"/><text fill="#000000" font-family="Tahoma, sans-serif" font-size="12" lengthAdjust="spacingAndGlyphs" textLength="58" x="83.7792" y="318.8618">copyright</text><ellipse cx="112.7278" cy="225.3922" fill="#F8F8F8" rx="59.9608" ry="14.3922" style="stroke: #383838; stroke-width: 0.5;"/><text fill="#000000" font-family="Tahoma, sans-serif" font-size="12" font-weight="bold" lengthAdjust="spacingAndGlyphs" textLength="90" x="67.7278" y="228.8765">copyright.cy</text><ellipse cx="112.614" cy="855.6694" fill="#F8F8F8" rx="76.347" ry="17.6694" style="stroke: #383838; stroke-width: 0.5;"/><text fill="#000000" font-family="Tahoma, sans-serif" font-size="12" lengthAdjust="spacingAndGlyphs" textLength="129" x="48.114" y="859.1538">createEmotionCache</text><ellipse cx="639.8147" cy="581.3774" fill="#F8F8F8" rx="47.5477" ry="12.8774" style="stroke: #383838; stroke-width: 0.5;"/><text fill="#000000" font-family="Tahoma, sans-serif" font-size="12" lengthAdjust="spacingAndGlyphs" textLength="63" x="608.3147" y="584.8618">entryForm</text><ellipse cx="639.6264" cy="535.3719" fill="#F8F8F8" rx="62.3594" ry="14.8719" style="stroke: #383838; stroke-width: 0.5;"/><text fill="#000000" font-family="Tahoma, sans-serif" font-size="12" font-weight="bold" lengthAdjust="spacingAndGlyphs" textLength="96" x="591.6264" y="538.8563">entryForm.cy</text><ellipse cx="112.7081" cy="271.3774" fill="#F8F8F8" rx="36.9411" ry="12.8774" style="stroke: #383838; stroke-width: 0.5;"/><text fill="#000000" font-family="Tahoma, sans-serif" font-size="12" font-weight="bold" lengthAdjust="spacingAndGlyphs" textLength="48" x="88.7081" y="274.8618">footer</text><ellipse cx="286.8503" cy="128.3774" fill="#F8F8F8" rx="51.0833" ry="12.8774" style="stroke: #383838; stroke-width: 0.5;"/><text fill="#000000" font-family="Tahoma, sans-serif" font-size="12" font-weight="bold" lengthAdjust="spacingAndGlyphs" textLength="68" x="252.8503" y="131.8618">footer.cy</text><ellipse cx="112.7792" cy="451.3774" fill="#F8F8F8" rx="44.0122" ry="12.8774" style="stroke: #383838; stroke-width: 0.5;"/><text fill="#000000" font-family="Tahoma, sans-serif" font-size="12" lengthAdjust="spacingAndGlyphs" textLength="58" x="83.7792" y="454.8618">formError</text><ellipse cx="286.9201" cy="174.6306" fill="#F8F8F8" rx="61.1531" ry="14.6306" style="stroke: #383838; stroke-width: 0.5;"/><text fill="#000000" font-family="Tahoma, sans-serif" font-size="12" font-weight="bold" lengthAdjust="spacingAndGlyphs" textLength="93" x="240.4201" y="178.115">formError.cy</text><ellipse cx="112.9005" cy="407.3774" fill="#F8F8F8" rx="46.1335" ry="12.8774" style="stroke: #383838; stroke-width: 0.5;"/><text fill="#000000" font-family="Tahoma, sans-serif" font-size="12" lengthAdjust="spacingAndGlyphs" textLength="61" x="82.4005" y="410.8618">formLabel</text><ellipse cx="286.8207" cy="221.7107" fill="#F8F8F8" rx="61.5537" ry="14.7107" style="stroke: #383838; stroke-width: 0.5;"/><text fill="#000000" font-family="Tahoma, sans-serif" font-size="12" font-weight="bold" lengthAdjust="spacingAndGlyphs" textLength="94" x="239.8207" y="225.1951">formLabel.cy</text><!--MD5=[3412f006c5a5bca124ba8ca73504a700]
entity _intro--><rect fill="#F8F8F8" height="33.9688" rx="3" ry="3" style="stroke: #000000; stroke-width: 0.5;" width="56" x="434.767" y="111.5"/><text fill="#000000" font-family="Tahoma, sans-serif" font-size="12" font-weight="bold" lengthAdjust="spacingAndGlyphs" textLength="36" x="444.767" y="132.6387">intro</text><ellipse cx="462.865" cy="176.3774" fill="#F8F8F8" rx="42.598" ry="12.8774" style="stroke: #383838; stroke-width: 0.5;"/><text fill="#000000" font-family="Tahoma, sans-serif" font-size="12" font-weight="bold" lengthAdjust="spacingAndGlyphs" textLength="56" x="434.865" y="179.8618">intro.cy</text><ellipse cx="112.7939" cy="22.3774" fill="#F8F8F8" rx="35.5269" ry="12.8774" style="stroke: #383838; stroke-width: 0.5;"/><text fill="#000000" font-family="Tahoma, sans-serif" font-size="12" font-weight="bold" lengthAdjust="spacingAndGlyphs" textLength="46" x="89.7939" y="25.8618">layout</text><ellipse cx="462.8503" cy="22.3774" fill="#F8F8F8" rx="51.0833" ry="12.8774" style="stroke: #383838; stroke-width: 0.5;"/><text fill="#000000" font-family="Tahoma, sans-serif" font-size="12" lengthAdjust="spacingAndGlyphs" textLength="68" x="428.8503" y="25.8618">storeClient</text><ellipse cx="112.8442" cy="806.3774" fill="#F8F8F8" rx="30.5772" ry="12.8774" style="stroke: #383838; stroke-width: 0.5;"/><text fill="#000000" font-family="Tahoma, sans-serif" font-size="12" lengthAdjust="spacingAndGlyphs" textLength="39" x="93.3442" y="809.8618">theme</text><ellipse cx="869.1236" cy="22.2713" fill="#F8F8F8" rx="56.8566" ry="13.7713" style="stroke: #383838; stroke-width: 0.5;"/><text fill="#000000" font-family="Tahoma, sans-serif" font-size="12" lengthAdjust="spacingAndGlyphs" textLength="82" x="828.1236" y="25.7557">theme/theme</text><ellipse cx="639.6447" cy="22.6755" fill="#F8F8F8" rx="53.8777" ry="13.1755" style="stroke: #383838; stroke-width: 0.5;"/><text fill="#000000" font-family="Tahoma, sans-serif" font-size="12" lengthAdjust="spacingAndGlyphs" textLength="74" x="602.6447" y="26.1599">themeClient</text><ellipse cx="462.9379" cy="759.5342" fill="#F8F8F8" rx="63.1709" ry="15.0342" style="stroke: #383838; stroke-width: 0.5;"/><text fill="#000000" font-family="Tahoma, sans-serif" font-size="12" lengthAdjust="spacingAndGlyphs" textLength="98" x="413.9379" y="763.0186">welcomeBanner</text><ellipse cx="462.8219" cy="708.611" fill="#F8F8F8" rx="78.5549" ry="18.111" style="stroke: #383838; stroke-width: 0.5;"/><text fill="#000000" font-family="Tahoma, sans-serif" font-size="12" font-weight="bold" lengthAdjust="spacingAndGlyphs" textLength="134" x="395.8219" y="712.0953">welcomeBanner.cy</text><!--MD5=[d6acc2d56dc00a3f932970cdb49d8321]
link <b>_document</b> to createEmotionCache--><path d="M60.4051,766.252 C43.785,770.66 27.3734,778.7656 18.2671,793.5 C12.1919,803.3297 12.1919,809.6703 18.2671,819.5 C24.8672,830.1792 35.1534,837.7013 46.5514,842.9968 " fill="none" id="&lt;b&gt;_document&lt;/b&gt;-&gt;createEmotionCache" style="stroke: #000000; stroke-width: 1.0;"/><polygon fill="#000000" points="51.1432,844.9901,44.4805,837.7369,46.5568,842.999,41.2947,845.0752,51.1432,844.9901" style="stroke: #000000; stroke-width: 1.0;"/><!--MD5=[bfa49ddd06828275335da7c3638b8b13]
link <b>_document</b> to theme--><path d="M112.767,775.4966 C112.767,779.808 112.767,784.1195 112.767,788.4309 " fill="none" id="&lt;b&gt;_document&lt;/b&gt;-&gt;theme" style="stroke: #000000; stroke-width: 1.0;"/><polygon fill="#000000" points="112.767,793.4922,116.767,784.4922,112.767,788.4922,108.767,784.4922,112.767,793.4922" style="stroke: #000000; stroke-width: 1.0;"/><!--MD5=[9b709d84b712f91b673ab8ca943e3820]
link <b>app/page</b> to ButtonDown--><path d="M155.744,709.624 C220.316,699.048 343.736,678.833 412.465,667.575 " fill="none" id="&lt;b&gt;app/page&lt;/b&gt;-&gt;ButtonDown" style="stroke: #000000; stroke-width: 1.0;"/><polygon fill="#000000" points="417.724,666.714,408.1956,664.222,412.7898,667.5226,409.4893,672.1168,417.724,666.714" style="stroke: #000000; stroke-width: 1.0;"/><!--MD5=[3d3a1d7f23031a19d70937ca2cf8f747]
link <b>app/page</b> to welcomeBanner--><path d="M158.55,722.033 C220.364,729.671 332.022,743.468 401.226,752.019 " fill="none" id="&lt;b&gt;app/page&lt;/b&gt;-&gt;welcomeBanner" style="stroke: #000000; stroke-width: 1.0;"/><polygon fill="#000000" points="406.547,752.677,398.1053,747.6038,401.5847,752.064,397.1245,755.5435,406.547,752.677" style="stroke: #000000; stroke-width: 1.0;"/><!--MD5=[aba1674978b846bc493a08bd06a4757a]
link <b>ButtonDown.cy</b> to ButtonDown--><path d="M462.767,628.599 C462.767,632.743 462.767,636.887 462.767,641.032 " fill="none" id="&lt;b&gt;ButtonDown.cy&lt;/b&gt;-&gt;ButtonDown" style="stroke: #000000; stroke-width: 1.0;"/><polygon fill="#000000" points="462.767,646.281,466.767,637.281,462.767,641.281,458.767,637.281,462.767,646.281" style="stroke: #000000; stroke-width: 1.0;"/><!--MD5=[3844612942431cac588470760a3ea8a5]
link <b>ButtonUp.cy</b> to ButtonUp--><path d="M639.767,458.996 C639.767,463.097 639.767,467.198 639.767,471.298 " fill="none" id="&lt;b&gt;ButtonUp.cy&lt;/b&gt;-&gt;ButtonUp" style="stroke: #000000; stroke-width: 1.0;"/><polygon fill="#000000" points="639.767,476.492,643.767,467.492,639.767,471.492,635.767,467.492,639.767,476.492" style="stroke: #000000; stroke-width: 1.0;"/><!--MD5=[6f8a491d82f25ed2b68346056b76710b]
link contact to contact--><path d="M87.7965,74.979 C72.1584,64.884 80.4819,53.5 112.767,53.5 C141.773,53.5 151.438,62.689 141.761,71.876 " fill="none" id="contact-&gt;contact" style="stroke: #000000; stroke-width: 0.5;"/><polygon fill="#000000" points="137.738,74.979,147.308,72.6519,141.6979,71.9262,142.4236,66.3161,137.738,74.979" style="stroke: #000000; stroke-width: 0.5;"/><!--MD5=[8c1f0e107ffcb0b9d38f6e2a13453977]
link <b>contactForm</b> to button--><path d="M57.4508,367.726 C41.8772,372.464 26.855,380.604 18.2671,394.5 C1.911,420.965 1.911,438.035 18.2671,464.5 C30.2004,483.809 54.7976,491.461 75.9055,494.337 " fill="none" id="&lt;b&gt;contactForm&lt;/b&gt;-&gt;button" style="stroke: #000000; stroke-width: 1.0;"/><polygon fill="#000000" points="80.9065,494.941,72.4503,489.8919,75.9425,494.3422,71.4922,497.8343,80.9065,494.941" style="stroke: #000000; stroke-width: 1.0;"/><!--MD5=[cb3df2eea1c08dc29dbab3cd30e59ea2]
link <b>contactForm</b> to formError--><path d="M57.4508,367.726 C41.8772,372.464 26.855,380.604 18.2671,394.5 C12.1919,404.33 12.1919,410.67 18.2671,420.5 C28.058,436.342 46.3738,444.338 64.2929,448.287 " fill="none" id="&lt;b&gt;contactForm&lt;/b&gt;-&gt;formError" style="stroke: #000000; stroke-width: 1.0;"/><polygon fill="#000000" points="69.3291,449.296,61.2914,443.6044,64.4267,448.3128,59.7183,451.4482,69.3291,449.296" style="stroke: #000000; stroke-width: 1.0;"/><!--MD5=[a4c159220f1d466ca3e741643d8fed33]
link <b>contactForm</b> to formLabel--><path d="M112.767,376.063 C112.767,380.409 112.767,384.755 112.767,389.101 " fill="none" id="&lt;b&gt;contactForm&lt;/b&gt;-&gt;formLabel" style="stroke: #000000; stroke-width: 1.0;"/><polygon fill="#000000" points="112.767,394.203,116.767,385.203,112.767,389.203,108.767,385.203,112.767,394.203" style="stroke: #000000; stroke-width: 1.0;"/><!--MD5=[fcc53ff29206d936e6c441be38035adf]
link <b>continue/page</b> to ButtonUp--><path d="M173.225,536.498 C279.117,525.807 498.155,503.695 593.157,494.104 " fill="none" id="&lt;b&gt;continue/page&lt;/b&gt;-&gt;ButtonUp" style="stroke: #000000; stroke-width: 1.0;"/><polygon fill="#000000" points="598.136,493.602,588.7793,490.5275,593.1614,494.1049,589.584,498.4869,598.136,493.602" style="stroke: #000000; stroke-width: 1.0;"/><!--MD5=[e481c367aedaf5f0993c7d4a1a025560]
link <b>continue/page</b> to entryForm--><path d="M175.535,547.088 C280.586,554.892 492.027,570.599 588.597,577.773 " fill="none" id="&lt;b&gt;continue/page&lt;/b&gt;-&gt;entryForm" style="stroke: #000000; stroke-width: 1.0;"/><polygon fill="#000000" points="593.669,578.15,584.9909,573.4926,588.6828,577.7786,584.3968,581.4705,593.669,578.15" style="stroke: #000000; stroke-width: 1.0;"/><!--MD5=[db11df1bc98df6427867134179cf7090]
link <b>entryForm.cy</b> to entryForm--><path d="M639.767,550.574 C639.767,554.706 639.767,558.838 639.767,562.97 " fill="none" id="&lt;b&gt;entryForm.cy&lt;/b&gt;-&gt;entryForm" style="stroke: #000000; stroke-width: 1.0;"/><polygon fill="#000000" points="639.767,568.203,643.767,559.203,639.767,563.203,635.767,559.203,639.767,568.203" style="stroke: #000000; stroke-width: 1.0;"/><!--MD5=[c31bfd78379cff89002a7b26d7b2f4c0]
link <b>footer</b> to copyright--><path d="M112.767,284.552 C112.767,288.837 112.767,293.122 112.767,297.407 " fill="none" id="&lt;b&gt;footer&lt;/b&gt;-&gt;copyright" style="stroke: #000000; stroke-width: 1.0;"/><polygon fill="#000000" points="112.767,302.438,116.767,293.438,112.767,297.438,108.767,293.438,112.767,302.438" style="stroke: #000000; stroke-width: 1.0;"/><!--MD5=[04ade0d12604dfa603ffcd9c86737b3b]
link <b>layout</b> to storeClient--><path d="M148.407,22.5 C208.847,22.5 334.029,22.5 406.547,22.5 " fill="none" id="&lt;b&gt;layout&lt;/b&gt;-&gt;storeClient" style="stroke: #000000; stroke-width: 1.0;"/><polygon fill="#000000" points="411.676,22.5,402.676,18.5,406.676,22.5,402.676,26.5,411.676,22.5" style="stroke: #000000; stroke-width: 1.0;"/><!--MD5=[4b542e7a59c06c40f563afebcb203d6b]
link storeClient to themeClient--><path d="M513.915,22.5 C534.673,22.5 558.884,22.5 580.43,22.5 " fill="none" id="storeClient-&gt;themeClient" style="stroke: #000000; stroke-width: 0.5;"/><polygon fill="#000000" points="585.558,22.5,576.558,18.5,580.558,22.5,576.558,26.5,585.558,22.5" style="stroke: #000000; stroke-width: 0.5;"/><!--MD5=[fd33998904714ebe996e70836d06230b]
link themeClient to theme/theme--><path d="M693.819,22.5 C727.607,22.5 771.501,22.5 806.806,22.5 " fill="none" id="themeClient-&gt;theme/theme" style="stroke: #000000; stroke-width: 0.5;"/><polygon fill="#000000" points="811.95,22.5,802.95,18.5,806.95,22.5,802.95,26.5,811.95,22.5" style="stroke: #000000; stroke-width: 0.5;"/><!--MD5=[0f012978060d6e988c3a7b8ebd75cddc]
link <b>welcomeBanner.cy</b> to welcomeBanner--><path d="M462.767,726.71 C462.767,730.846 462.767,734.983 462.767,739.12 " fill="none" id="&lt;b&gt;welcomeBanner.cy&lt;/b&gt;-&gt;welcomeBanner" style="stroke: #000000; stroke-width: 1.0;"/><polygon fill="#000000" points="462.767,744.359,466.767,735.359,462.767,739.359,458.767,735.359,462.767,744.359" style="stroke: #000000; stroke-width: 1.0;"/><!--MD5=[b2523d7d41660080096b730c56220810]
link <b>button.cy</b> to <b>contactForm.cy</b>--><!--MD5=[7c19ecad56fe3626b190827b2778b865]
link <b>contactForm.cy</b> to <b>copyright.cy</b>--><!--MD5=[7b7dd5af752540969d08b301e0ea3147]
link <b>button.cy</b> to <b>footer.cy</b>--><!--MD5=[73ae4929cdbf56bcd450ad3a6025f873]
link <b>footer.cy</b> to <b>formError.cy</b>--><!--MD5=[1f4563f9092fd5e56c5d7aa5ad426929]
link <b>formError.cy</b> to <b>formLabel.cy</b>--><!--MD5=[c672e14b825502de193fe4079b750260]
link <b>footer.cy</b> to _intro--><!--MD5=[6a81fbd1404a2be1a7cf8d58d04a8cb8]
link _intro to <b>intro.cy</b>--><script type="text/plantuml"><![CDATA[MD5=[23c49f3607237454e89bead2e297843c]
@startuml

scale max 1920 width
left to right direction

skinparam nodesep 18
skinparam ranksep 36
skinparam monochrome true
skinparam shadowing false
skinparam defaultFontName Tahoma
skinparam defaultFontSize 12
skinparam roundCorner 6
skinparam dpi 150
skinparam arrowColor black
skinparam arrowThickness 0.5
skinparam packageTitleAlignment left

skinparam usecase {
  borderThickness 0.5
}

skinparam rectangle {
  borderThickness 0.5
}

skinparam component {
  borderThickness 1
}


(<b>_document</b>)
(<b>app/page</b>)
(button)
(<b>button.cy</b>)
(ButtonDown)
(<b>ButtonDown.cy</b>)
(ButtonUp)
(<b>ButtonUp.cy</b>)
(contact)
(<b>contactForm</b>)
(<b>contactForm.cy</b>)
(<b>continue/page</b>)
(copyright)
(<b>copyright.cy</b>)
(createEmotionCache)
(entryForm)
(<b>entryForm.cy</b>)
(<b>footer</b>)
(<b>footer.cy</b>)
(formError)
(<b>formError.cy</b>)
(formLabel)
(<b>formLabel.cy</b>)
rectangle "<b>intro</b>" as _intro
(<b>intro.cy</b>)
(<b>layout</b>)
(storeClient)
(theme)
(theme/theme)
(themeClient)
(welcomeBanner)
(<b>welcomeBanner.cy</b>)


(<b>_document</b>) -[thickness=1]> (createEmotionCache)
(<b>_document</b>) -[thickness=1]> (theme)
(<b>app/page</b>) ---[thickness=1]> (ButtonDown)
(<b>app/page</b>) ---[thickness=1]> (welcomeBanner)
(<b>ButtonDown.cy</b>) -[thickness=1]> (ButtonDown)
(<b>ButtonUp.cy</b>) -[thickness=1]> (ButtonUp)
(contact) --> (contact)
(<b>contactForm</b>) -[thickness=1]> (button)
(<b>contactForm</b>) -[thickness=1]> (formError)
(<b>contactForm</b>) -[thickness=1]> (formLabel)
(<b>continue/page</b>) ----[thickness=1]> (ButtonUp)
(<b>continue/page</b>) ----[thickness=1]> (entryForm)
(<b>entryForm.cy</b>) -[thickness=1]> (entryForm)
(<b>footer</b>) -[thickness=1]> (copyright)
(<b>layout</b>) ---[thickness=1]> (storeClient)
(storeClient) --> (themeClient)
(themeClient) ----> (theme/theme)
(<b>welcomeBanner.cy</b>) -[thickness=1]> (welcomeBanner)

@enduml


' View and edit on https://arkit.pro
]]></script></g></svg>