<?xml version="1.0" encoding="UTF-8" standalone="no"?>
<!DOCTYPE svg PUBLIC "-//W3C//DTD SVG 1.1//EN"
 "http://www.w3.org/Graphics/SVG/1.1/DTD/svg11.dtd">
<!-- Generated by graphviz version 2.43.0 (0)
 -->
<!-- Title: dependency&#45;cruiser output Pages: 1 -->
<svg width="369pt" height="346pt"
 viewBox="0.00 0.00 369.00 346.00" xmlns="http://www.w3.org/2000/svg" xmlns:xlink="http://www.w3.org/1999/xlink">
<g id="graph0" class="graph" transform="scale(1 1) rotate(0) translate(4 342)">
<title>dependency&#45;cruiser output</title>
<polygon fill="white" stroke="transparent" points="-4,4 -4,-342 365,-342 365,4 -4,4"/>
<g id="clust1" class="cluster">
<title>cluster_src</title>
<path fill="#ffffff" stroke="black" stroke-width="2" d="M20,-8C20,-8 341,-8 341,-8 347,-8 353,-14 353,-20 353,-20 353,-318 353,-318 353,-324 347,-330 341,-330 341,-330 20,-330 20,-330 14,-330 8,-324 8,-318 8,-318 8,-20 8,-20 8,-14 14,-8 20,-8"/>
<text text-anchor="middle" x="180.5" y="-318.8" font-family="Helvetica,sans-Serif" font-weight="bold" font-size="9.00">src</text>
</g>
<g id="clust2" class="cluster">
<title>cluster_src/app</title>
<path fill="#ffffff" stroke="black" stroke-width="2" d="M39.5,-192C39.5,-192 92.5,-192 92.5,-192 98.5,-192 104.5,-198 104.5,-204 104.5,-204 104.5,-262 104.5,-262 104.5,-268 98.5,-274 92.5,-274 92.5,-274 39.5,-274 39.5,-274 33.5,-274 27.5,-268 27.5,-262 27.5,-262 27.5,-204 27.5,-204 27.5,-198 33.5,-192 39.5,-192"/>
<text text-anchor="middle" x="66" y="-262.8" font-family="Helvetica,sans-Serif" font-weight="bold" font-size="9.00">app</text>
</g>
<g id="clust3" class="cluster">
<title>cluster_src/components</title>
<path fill="#ffffff" stroke="black" stroke-width="2" d="M144,-72C144,-72 333,-72 333,-72 339,-72 345,-78 345,-84 345,-84 345,-202 345,-202 345,-208 339,-214 333,-214 333,-214 144,-214 144,-214 138,-214 132,-208 132,-202 132,-202 132,-84 132,-84 132,-78 138,-72 144,-72"/>
<text text-anchor="middle" x="238.5" y="-202.8" font-family="Helvetica,sans-Serif" font-weight="bold" font-size="9.00">components</text>
</g>
<g id="clust4" class="cluster">
<title>cluster_src/pages</title>
<path fill="#ffffff" stroke="black" stroke-width="2" d="M28,-38C28,-38 104,-38 104,-38 110,-38 116,-44 116,-50 116,-50 116,-138 116,-138 116,-144 110,-150 104,-150 104,-150 28,-150 28,-150 22,-150 16,-144 16,-138 16,-138 16,-50 16,-50 16,-44 22,-38 28,-38"/>
<text text-anchor="middle" x="66" y="-138.8" font-family="Helvetica,sans-Serif" font-weight="bold" font-size="9.00">pages</text>
</g>
<g id="clust5" class="cluster">
<title>cluster_src/pages/contact</title>
<path fill="#ffffff" stroke="black" stroke-width="2" d="M41,-72C41,-72 91,-72 91,-72 97,-72 103,-78 103,-84 103,-84 103,-112 103,-112 103,-118 97,-124 91,-124 91,-124 41,-124 41,-124 35,-124 29,-118 29,-112 29,-112 29,-84 29,-84 29,-78 35,-72 41,-72"/>
<text text-anchor="middle" x="66" y="-112.8" font-family="Helvetica,sans-Serif" font-weight="bold" font-size="9.00">contact</text>
</g>
<g id="clust6" class="cluster">
<title>cluster_src/styles</title>
<path fill="#ffffff" stroke="black" stroke-width="2" d="M142.5,-222C142.5,-222 227.5,-222 227.5,-222 233.5,-222 239.5,-228 239.5,-234 239.5,-234 239.5,-292 239.5,-292 239.5,-298 233.5,-304 227.5,-304 227.5,-304 142.5,-304 142.5,-304 136.5,-304 130.5,-298 130.5,-292 130.5,-292 130.5,-234 130.5,-234 130.5,-228 136.5,-222 142.5,-222"/>
<text text-anchor="middle" x="185" y="-292.8" font-family="Helvetica,sans-Serif" font-weight="bold" font-size="9.00">styles</text>
</g>
<!-- src/app/layout.tsx -->
<g id="node1" class="node">
<title>src/app/layout.tsx</title>
<g id="a_node1"><a xlink:href="src/app/layout.tsx" xlink:title="layout.tsx">
<path fill="#bbfeff" stroke="black" d="M90.5,-248C90.5,-248 41.5,-248 41.5,-248 38.5,-248 35.5,-245 35.5,-242 35.5,-242 35.5,-236 35.5,-236 35.5,-233 38.5,-230 41.5,-230 41.5,-230 90.5,-230 90.5,-230 93.5,-230 96.5,-233 96.5,-236 96.5,-236 96.5,-242 96.5,-242 96.5,-245 93.5,-248 90.5,-248"/>
<text text-anchor="start" x="43.5" y="-236.8" font-family="Helvetica,sans-Serif" font-size="9.00">layout.tsx</text>
</a>
</g>
</g>
<!-- src/styles/globals.css -->
<g id="node2" class="node">
<title>src/styles/globals.css</title>
<g id="a_node2"><a xlink:href="src/styles/globals.css" xlink:title="globals.css">
<path fill="#ffffcc" stroke="black" d="M211.5,-278C211.5,-278 158.5,-278 158.5,-278 155.5,-278 152.5,-275 152.5,-272 152.5,-272 152.5,-266 152.5,-266 152.5,-263 155.5,-260 158.5,-260 158.5,-260 211.5,-260 211.5,-260 214.5,-260 217.5,-263 217.5,-266 217.5,-266 217.5,-272 217.5,-272 217.5,-275 214.5,-278 211.5,-278"/>
<text text-anchor="start" x="160.5" y="-266.8" font-family="Helvetica,sans-Serif" font-size="9.00">globals.css</text>
</a>
</g>
</g>
<!-- src/app/layout.tsx&#45;&gt;src/styles/globals.css -->
<g id="edge1" class="edge">
<title>src/app/layout.tsx&#45;&gt;src/styles/globals.css</title>
<path fill="none" stroke="#000000" stroke-width="2" stroke-opacity="0.200000" d="M96.57,-246.85C105.39,-249.18 115.08,-251.71 124,-254 131.15,-255.83 138.79,-257.77 146.13,-259.61"/>
<polygon fill="#000000" fill-opacity="0.200000" stroke="#000000" stroke-width="2" stroke-opacity="0.200000" points="145.89,-261.71 152.22,-261.13 146.91,-257.64 145.89,-261.71"/>
</g>
<!-- src/app/page.tsx -->
<g id="node3" class="node">
<title>src/app/page.tsx</title>
<g id="a_node3"><a xlink:href="src/app/page.tsx" xlink:title="page.tsx">
<path fill="#bbfeff" stroke="black" d="M88,-218C88,-218 44,-218 44,-218 41,-218 38,-215 38,-212 38,-212 38,-206 38,-206 38,-203 41,-200 44,-200 44,-200 88,-200 88,-200 91,-200 94,-203 94,-206 94,-206 94,-212 94,-212 94,-215 91,-218 88,-218"/>
<text text-anchor="start" x="46" y="-206.8" font-family="Helvetica,sans-Serif" font-size="9.00">page.tsx</text>
</a>
</g>
</g>
<!-- src/components/footer.tsx -->
<g id="node4" class="node">
<title>src/components/footer.tsx</title>
<g id="a_node4"><a xlink:href="src/components/footer.tsx" xlink:title="footer.tsx">
<path fill="#bbfeff" stroke="black" d="M208.5,-188C208.5,-188 161.5,-188 161.5,-188 158.5,-188 155.5,-185 155.5,-182 155.5,-182 155.5,-176 155.5,-176 155.5,-173 158.5,-170 161.5,-170 161.5,-170 208.5,-170 208.5,-170 211.5,-170 214.5,-173 214.5,-176 214.5,-176 214.5,-182 214.5,-182 214.5,-185 211.5,-188 208.5,-188"/>
<text text-anchor="start" x="163.5" y="-176.8" font-family="Helvetica,sans-Serif" font-size="9.00">footer.tsx</text>
</a>
</g>
</g>
<!-- src/app/page.tsx&#45;&gt;src/components/footer.tsx -->
<g id="edge2" class="edge">
<title>src/app/page.tsx&#45;&gt;src/components/footer.tsx</title>
<path fill="none" stroke="#000000" stroke-width="2" stroke-opacity="0.200000" d="M94.14,-202.04C110.63,-197.81 131.85,-192.37 149.53,-187.84"/>
<polygon fill="#000000" fill-opacity="0.200000" stroke="#000000" stroke-width="2" stroke-opacity="0.200000" points="150.09,-189.86 155.38,-186.34 149.04,-185.79 150.09,-189.86"/>
</g>
<!-- src/components/intro.tsx -->
<g id="node5" class="node">
<title>src/components/intro.tsx</title>
<g id="a_node5"><a xlink:href="src/components/intro.tsx" xlink:title="intro.tsx">
<path fill="#bbfeff" stroke="black" d="M206,-158C206,-158 164,-158 164,-158 161,-158 158,-155 158,-152 158,-152 158,-146 158,-146 158,-143 161,-140 164,-140 164,-140 206,-140 206,-140 209,-140 212,-143 212,-146 212,-146 212,-152 212,-152 212,-155 209,-158 206,-158"/>
<text text-anchor="start" x="166" y="-146.8" font-family="Helvetica,sans-Serif" font-size="9.00">intro.tsx</text>
</a>
</g>
</g>
<!-- src/app/page.tsx&#45;&gt;src/components/intro.tsx -->
<g id="edge3" class="edge">
<title>src/app/page.tsx&#45;&gt;src/components/intro.tsx</title>
<path fill="none" stroke="#000000" stroke-width="2" stroke-opacity="0.200000" d="M76.22,-199.65C86.82,-189.41 105.22,-173.23 124,-164 132.62,-159.77 142.53,-156.66 151.79,-154.41"/>
<polygon fill="#000000" fill-opacity="0.200000" stroke="#000000" stroke-width="2" stroke-opacity="0.200000" points="152.38,-156.43 157.76,-153.05 151.44,-152.34 152.38,-156.43"/>
</g>
<!-- src/styles/page.module.css -->
<g id="node6" class="node">
<title>src/styles/page.module.css</title>
<g id="a_node6"><a xlink:href="src/styles/page.module.css" xlink:title="page.module.css">
<path fill="#ffffcc" stroke="black" d="M225.5,-248C225.5,-248 144.5,-248 144.5,-248 141.5,-248 138.5,-245 138.5,-242 138.5,-242 138.5,-236 138.5,-236 138.5,-233 141.5,-230 144.5,-230 144.5,-230 225.5,-230 225.5,-230 228.5,-230 231.5,-233 231.5,-236 231.5,-236 231.5,-242 231.5,-242 231.5,-245 228.5,-248 225.5,-248"/>
<text text-anchor="start" x="146.5" y="-236.8" font-family="Helvetica,sans-Serif" font-size="9.00">page.module.css</text>
</a>
</g>
</g>
<!-- src/app/page.tsx&#45;&gt;src/styles/page.module.css -->
<g id="edge4" class="edge">
<title>src/app/page.tsx&#45;&gt;src/styles/page.module.css</title>
<path fill="none" stroke="#000000" stroke-width="2" stroke-opacity="0.200000" d="M94.14,-215.96C108.57,-219.66 126.61,-224.28 142.73,-228.42"/>
<polygon fill="#000000" fill-opacity="0.200000" stroke="#000000" stroke-width="2" stroke-opacity="0.200000" points="142.25,-230.46 148.58,-229.92 143.29,-226.39 142.25,-230.46"/>
</g>
<!-- src/components/copyright.tsx -->
<g id="node11" class="node">
<title>src/components/copyright.tsx</title>
<g id="a_node11"><a xlink:href="src/components/copyright.tsx" xlink:title="copyright.tsx">
<path fill="#bbfeff" stroke="black" d="M330.5,-188C330.5,-188 265.5,-188 265.5,-188 262.5,-188 259.5,-185 259.5,-182 259.5,-182 259.5,-176 259.5,-176 259.5,-173 262.5,-170 265.5,-170 265.5,-170 330.5,-170 330.5,-170 333.5,-170 336.5,-173 336.5,-176 336.5,-176 336.5,-182 336.5,-182 336.5,-185 333.5,-188 330.5,-188"/>
<text text-anchor="start" x="267.5" y="-176.8" font-family="Helvetica,sans-Serif" font-size="9.00">copyright.tsx</text>
</a>
</g>
</g>
<!-- src/components/footer.tsx&#45;&gt;src/components/copyright.tsx -->
<g id="edge8" class="edge">
<title>src/components/footer.tsx&#45;&gt;src/components/copyright.tsx</title>
<path fill="none" stroke="#000000" stroke-width="2" stroke-opacity="0.200000" d="M214.59,-179C226.29,-179 240.1,-179 253.03,-179"/>
<polygon fill="#000000" fill-opacity="0.200000" stroke="#000000" stroke-width="2" stroke-opacity="0.200000" points="253.3,-181.1 259.3,-179 253.3,-176.9 253.3,-181.1"/>
</g>
<!-- src/components/button.tsx -->
<g id="node7" class="node">
<title>src/components/button.tsx</title>
<g id="a_node7"><a xlink:href="src/components/button.tsx" xlink:title="button.tsx">
<path fill="#bbfeff" stroke="black" d="M324,-98C324,-98 272,-98 272,-98 269,-98 266,-95 266,-92 266,-92 266,-86 266,-86 266,-83 269,-80 272,-80 272,-80 324,-80 324,-80 327,-80 330,-83 330,-86 330,-86 330,-92 330,-92 330,-95 327,-98 324,-98"/>
<text text-anchor="start" x="274" y="-86.8" font-family="Helvetica,sans-Serif" font-size="9.00">button.tsx</text>
</a>
</g>
</g>
<!-- src/components/contactForm.tsx -->
<g id="node8" class="node">
<title>src/components/contactForm.tsx</title>
<g id="a_node8"><a xlink:href="src/components/contactForm.tsx" xlink:title="contactForm.tsx">
<path fill="#bbfeff" stroke="black" d="M224,-113C224,-113 146,-113 146,-113 143,-113 140,-110 140,-107 140,-107 140,-101 140,-101 140,-98 143,-95 146,-95 146,-95 224,-95 224,-95 227,-95 230,-98 230,-101 230,-101 230,-107 230,-107 230,-110 227,-113 224,-113"/>
<text text-anchor="start" x="148" y="-101.8" font-family="Helvetica,sans-Serif" font-size="9.00">contactForm.tsx</text>
</a>
</g>
</g>
<!-- src/components/contactForm.tsx&#45;&gt;src/components/button.tsx -->
<g id="edge5" class="edge">
<title>src/components/contactForm.tsx&#45;&gt;src/components/button.tsx</title>
<path fill="none" stroke="#000000" stroke-width="2" stroke-opacity="0.200000" d="M230.19,-98.03C240.01,-96.7 250.32,-95.31 259.83,-94.02"/>
<polygon fill="#000000" fill-opacity="0.200000" stroke="#000000" stroke-width="2" stroke-opacity="0.200000" points="260.28,-96.08 265.94,-93.2 259.72,-91.92 260.28,-96.08"/>
</g>
<!-- src/components/formError.tsx -->
<g id="node9" class="node">
<title>src/components/formError.tsx</title>
<g id="a_node9"><a xlink:href="src/components/formError.tsx" xlink:title="formError.tsx">
<path fill="#bbfeff" stroke="black" d="M330,-128C330,-128 266,-128 266,-128 263,-128 260,-125 260,-122 260,-122 260,-116 260,-116 260,-113 263,-110 266,-110 266,-110 330,-110 330,-110 333,-110 336,-113 336,-116 336,-116 336,-122 336,-122 336,-125 333,-128 330,-128"/>
<text text-anchor="start" x="268" y="-116.8" font-family="Helvetica,sans-Serif" font-size="9.00">formError.tsx</text>
</a>
</g>
</g>
<!-- src/components/contactForm.tsx&#45;&gt;src/components/formError.tsx -->
<g id="edge6" class="edge">
<title>src/components/contactForm.tsx&#45;&gt;src/components/formError.tsx</title>
<path fill="none" stroke="#000000" stroke-width="2" stroke-opacity="0.200000" d="M230.19,-109.97C237.84,-111.01 245.79,-112.08 253.43,-113.11"/>
<polygon fill="#000000" fill-opacity="0.200000" stroke="#000000" stroke-width="2" stroke-opacity="0.200000" points="253.53,-115.24 259.75,-113.97 254.09,-111.08 253.53,-115.24"/>
</g>
<!-- src/components/formLabel.tsx -->
<g id="node10" class="node">
<title>src/components/formLabel.tsx</title>
<g id="a_node10"><a xlink:href="src/components/formLabel.tsx" xlink:title="formLabel.tsx">
<path fill="#bbfeff" stroke="black" d="M331,-158C331,-158 265,-158 265,-158 262,-158 259,-155 259,-152 259,-152 259,-146 259,-146 259,-143 262,-140 265,-140 265,-140 331,-140 331,-140 334,-140 337,-143 337,-146 337,-146 337,-152 337,-152 337,-155 334,-158 331,-158"/>
<text text-anchor="start" x="267" y="-146.8" font-family="Helvetica,sans-Serif" font-size="9.00">formLabel.tsx</text>
</a>
</g>
</g>
<!-- src/components/contactForm.tsx&#45;&gt;src/components/formLabel.tsx -->
<g id="edge7" class="edge">
<title>src/components/contactForm.tsx&#45;&gt;src/components/formLabel.tsx</title>
<path fill="none" stroke="#000000" stroke-width="2" stroke-opacity="0.200000" d="M207.69,-113.01C222.19,-119.01 241.71,-127.04 259,-134 261.81,-135.13 264.75,-136.31 267.68,-137.47"/>
<polygon fill="#000000" fill-opacity="0.200000" stroke="#000000" stroke-width="2" stroke-opacity="0.200000" points="267.32,-139.59 273.67,-139.85 268.87,-135.68 267.32,-139.59"/>
</g>
<!-- src/createEmotionCache.ts -->
<g id="node12" class="node">
<title>src/createEmotionCache.ts</title>
<g id="a_node12"><a xlink:href="src/createEmotionCache.ts" xlink:title="createEmotionCache.ts">
<path fill="#ddfeff" stroke="black" d="M240,-34C240,-34 130,-34 130,-34 127,-34 124,-31 124,-28 124,-28 124,-22 124,-22 124,-19 127,-16 130,-16 130,-16 240,-16 240,-16 243,-16 246,-19 246,-22 246,-22 246,-28 246,-28 246,-31 243,-34 240,-34"/>
<text text-anchor="start" x="132" y="-22.8" font-family="Helvetica,sans-Serif" font-size="9.00">createEmotionCache.ts</text>
</a>
</g>
</g>
<!-- src/pages/_document.tsx -->
<g id="node13" class="node">
<title>src/pages/_document.tsx</title>
<g id="a_node13"><a xlink:href="src/pages/_document.tsx" xlink:title="_document.tsx">
<path fill="#bbfeff" stroke="black" d="M102,-64C102,-64 30,-64 30,-64 27,-64 24,-61 24,-58 24,-58 24,-52 24,-52 24,-49 27,-46 30,-46 30,-46 102,-46 102,-46 105,-46 108,-49 108,-52 108,-52 108,-58 108,-58 108,-61 105,-64 102,-64"/>
<text text-anchor="start" x="32" y="-52.8" font-family="Helvetica,sans-Serif" font-size="9.00">_document.tsx</text>
</a>
</g>
</g>
<!-- src/pages/_document.tsx&#45;&gt;src/createEmotionCache.ts -->
<g id="edge9" class="edge">
<title>src/pages/_document.tsx&#45;&gt;src/createEmotionCache.ts</title>
<path fill="none" stroke="#000000" stroke-width="2" stroke-opacity="0.200000" d="M101.04,-45.97C108.6,-43.98 116.57,-41.91 124,-40 129.69,-38.54 135.7,-37.02 141.62,-35.53"/>
<polygon fill="#000000" fill-opacity="0.200000" stroke="#000000" stroke-width="2" stroke-opacity="0.200000" points="142.19,-37.55 147.49,-34.05 141.16,-33.48 142.19,-37.55"/>
</g>
<!-- src/theme.ts -->
<g id="node14" class="node">
<title>src/theme.ts</title>
<g id="a_node14"><a xlink:href="src/theme.ts" xlink:title="theme.ts">
<path fill="#ddfeff" stroke="black" d="M207.5,-64C207.5,-64 162.5,-64 162.5,-64 159.5,-64 156.5,-61 156.5,-58 156.5,-58 156.5,-52 156.5,-52 156.5,-49 159.5,-46 162.5,-46 162.5,-46 207.5,-46 207.5,-46 210.5,-46 213.5,-49 213.5,-52 213.5,-52 213.5,-58 213.5,-58 213.5,-61 210.5,-64 207.5,-64"/>
<text text-anchor="start" x="164.5" y="-52.8" font-family="Helvetica,sans-Serif" font-size="9.00">theme.ts</text>
</a>
</g>
</g>
<!-- src/pages/_document.tsx&#45;&gt;src/theme.ts -->
<g id="edge10" class="edge">
<title>src/pages/_document.tsx&#45;&gt;src/theme.ts</title>
<path fill="none" stroke="#000000" stroke-width="2" stroke-opacity="0.200000" d="M108.25,-55C121.93,-55 137,-55 150.06,-55"/>
<polygon fill="#000000" fill-opacity="0.200000" stroke="#000000" stroke-width="2" stroke-opacity="0.200000" points="150.3,-57.1 156.3,-55 150.3,-52.9 150.3,-57.1"/>
</g>
<!-- src/pages/contact/index.tsx -->
<g id="node15" class="node">
<title>src/pages/contact/index.tsx</title>
<g id="a_node15"><a xlink:href="src/pages/contact/index.tsx" xlink:title="index.tsx">
<path fill="#bbfeff" stroke="black" d="M89,-98C89,-98 43,-98 43,-98 40,-98 37,-95 37,-92 37,-92 37,-86 37,-86 37,-83 40,-80 43,-80 43,-80 89,-80 89,-80 92,-80 95,-83 95,-86 95,-86 95,-92 95,-92 95,-95 92,-98 89,-98"/>
<text text-anchor="start" x="45" y="-86.8" font-family="Helvetica,sans-Serif" font-size="9.00">index.tsx</text>
</a>
</g>
</g>
<!-- src/pages/contact/index.tsx&#45;&gt;src/components/contactForm.tsx -->
<g id="edge11" class="edge">
<title>src/pages/contact/index.tsx&#45;&gt;src/components/contactForm.tsx</title>
<path fill="none" stroke="#000000" stroke-width="2" stroke-opacity="0.200000" d="M95.02,-92.59C106.63,-94.08 120.46,-95.85 133.72,-97.55"/>
<polygon fill="#000000" fill-opacity="0.200000" stroke="#000000" stroke-width="2" stroke-opacity="0.200000" points="133.54,-99.65 139.76,-98.33 134.07,-95.48 133.54,-99.65"/>
</g>
</g>
</svg>
