<?xml version="1.0" encoding="UTF-8" standalone="no"?>
<!DOCTYPE svg PUBLIC "-//W3C//DTD SVG 1.1//EN"
 "http://www.w3.org/Graphics/SVG/1.1/DTD/svg11.dtd">
<!-- Generated by graphviz version 2.43.0 (0)
 -->
<!-- Title: G Pages: 1 -->
<svg width="472pt" height="107pt"
 viewBox="0.00 0.00 472.20 107.20" xmlns="http://www.w3.org/2000/svg" xmlns:xlink="http://www.w3.org/1999/xlink">
<g id="graph0" class="graph" transform="scale(1 1) rotate(0) translate(21.6 85.6)">
<title>G</title>
<polygon fill="#111111" stroke="transparent" points="-21.6,21.6 -21.6,-85.6 450.6,-85.6 450.6,21.6 -21.6,21.6"/>
<!-- ../components/buttonDown/ButtonDown.tsx -->
<g id="node1" class="node">
<title>../components/buttonDown/ButtonDown.tsx</title>
<path fill="none" stroke="#cfffac" d="M396.83,-64C396.83,-64 136.17,-64 136.17,-64 132.33,-64 128.5,-60.17 128.5,-56.33 128.5,-56.33 128.5,-48.67 128.5,-48.67 128.5,-44.83 132.33,-41 136.17,-41 136.17,-41 396.83,-41 396.83,-41 400.67,-41 404.5,-44.83 404.5,-48.67 404.5,-48.67 404.5,-56.33 404.5,-56.33 404.5,-60.17 400.67,-64 396.83,-64"/>
<text text-anchor="middle" x="266.5" y="-48.8" font-family="Arial" font-size="14.00" fill="#cfffac">../components/buttonDown/ButtonDown.tsx</text>
</g>
<!-- ../components/welcomeBanner/welcomeBanner.tsx -->
<g id="node2" class="node">
<title>../components/welcomeBanner/welcomeBanner.tsx</title>
<path fill="none" stroke="#cfffac" d="M421.33,-23C421.33,-23 111.67,-23 111.67,-23 107.83,-23 104,-19.17 104,-15.33 104,-15.33 104,-7.67 104,-7.67 104,-3.83 107.83,0 111.67,0 111.67,0 421.33,0 421.33,0 425.17,0 429,-3.83 429,-7.67 429,-7.67 429,-15.33 429,-15.33 429,-19.17 425.17,-23 421.33,-23"/>
<text text-anchor="middle" x="266.5" y="-7.8" font-family="Arial" font-size="14.00" fill="#cfffac">../components/welcomeBanner/welcomeBanner.tsx</text>
</g>
<!-- page.tsx -->
<g id="node3" class="node">
<title>page.tsx</title>
<path fill="none" stroke="#c6c5fe" d="M60.33,-43C60.33,-43 7.67,-43 7.67,-43 3.83,-43 0,-39.17 0,-35.33 0,-35.33 0,-27.67 0,-27.67 0,-23.83 3.83,-20 7.67,-20 7.67,-20 60.33,-20 60.33,-20 64.17,-20 68,-23.83 68,-27.67 68,-27.67 68,-35.33 68,-35.33 68,-39.17 64.17,-43 60.33,-43"/>
<text text-anchor="middle" x="34" y="-27.8" font-family="Arial" font-size="14.00" fill="#c6c5fe">page.tsx</text>
</g>
<!-- page.tsx&#45;&gt;../components/buttonDown/ButtonDown.tsx -->
<g id="edge1" class="edge">
<title>page.tsx&#45;&gt;../components/buttonDown/ButtonDown.tsx</title>
<path fill="none" stroke="#757575" d="M68.03,-34.51C84.78,-36.04 106.37,-38 129.1,-40.07"/>
<polygon fill="#757575" stroke="#757575" points="128.97,-43.58 139.25,-41 129.61,-36.6 128.97,-43.58"/>
</g>
<!-- page.tsx&#45;&gt;../components/welcomeBanner/welcomeBanner.tsx -->
<g id="edge2" class="edge">
<title>page.tsx&#45;&gt;../components/welcomeBanner/welcomeBanner.tsx</title>
<path fill="none" stroke="#757575" d="M68.03,-28.63C83.22,-27.32 102.38,-25.65 122.77,-23.88"/>
<polygon fill="#757575" stroke="#757575" points="123.2,-27.36 132.86,-23.01 122.6,-20.39 123.2,-27.36"/>
</g>
</g>
</svg>
