<?xml version="1.0" encoding="UTF-8" standalone="no"?><svg xmlns="http://www.w3.org/2000/svg" xmlns:xlink="http://www.w3.org/1999/xlink" contentScriptType="application/ecmascript" contentStyleType="text/css" height="1068px" preserveAspectRatio="none" style="width:1031px;height:1068px;" version="1.1" viewBox="0 0 1031 1068" width="1031px" zoomAndPan="magnify"><defs/><g><!--MD5=[a6f11bb19cee6b13000111f5ad685e8b]
cluster Dependencies--><path d="M849,220 L951,220 A4.5,4.5 0 0 1 954,223 L961,239.9688 L1016,239.9688 A3,3 0 0 1 1019,242.9688 L1019,829 A3,3 0 0 1 1016,832 L849,832 A3,3 0 0 1 846,829 L846,223 A3,3 0 0 1 849,220 " fill="#FFFFFF" style="stroke: #000000; stroke-width: 1.5;"/><line style="stroke: #000000; stroke-width: 1.5;" x1="846" x2="961" y1="239.9688" y2="239.9688"/><text fill="#000000" font-family="Tahoma, sans-serif" font-size="12" font-weight="bold" lengthAdjust="spacingAndGlyphs" textLength="102" x="850" y="233.1387">Dependencies</text><!--MD5=[3ab221e498dae82fb0729760beb322d1]
entity @emotion--><rect fill="#F8F8F8" height="33.9688" rx="3" ry="3" style="stroke: #383838; stroke-width: 1.0;" width="82" x="891.5" y="305"/><rect fill="#F8F8F8" height="5" style="stroke: #383838; stroke-width: 1.0;" width="10" x="886.5" y="310"/><rect fill="#F8F8F8" height="5" style="stroke: #383838; stroke-width: 1.0;" width="10" x="886.5" y="328.9688"/><text fill="#000000" font-family="Tahoma, sans-serif" font-size="12" lengthAdjust="spacingAndGlyphs" textLength="62" x="901.5" y="326.1387">@emotion</text><!--MD5=[d83950cb277ca06e804b453a0ad9f6c1]
entity @mui--><rect fill="#F8F8F8" height="33.9688" rx="3" ry="3" style="stroke: #383838; stroke-width: 1.0;" width="53" x="906" y="570"/><rect fill="#F8F8F8" height="5" style="stroke: #383838; stroke-width: 1.0;" width="10" x="901" y="575"/><rect fill="#F8F8F8" height="5" style="stroke: #383838; stroke-width: 1.0;" width="10" x="901" y="593.9688"/><text fill="#000000" font-family="Tahoma, sans-serif" font-size="12" lengthAdjust="spacingAndGlyphs" textLength="33" x="916" y="591.1387">@mui</text><!--MD5=[f302c0f5ebac8297acedf7c3fabcc7ec]
entity @testing-library--><rect fill="#F8F8F8" height="33.9688" rx="3" ry="3" style="stroke: #383838; stroke-width: 1.0;" width="119" x="873" y="782"/><rect fill="#F8F8F8" height="5" style="stroke: #383838; stroke-width: 1.0;" width="10" x="868" y="787"/><rect fill="#F8F8F8" height="5" style="stroke: #383838; stroke-width: 1.0;" width="10" x="868" y="805.9688"/><text fill="#000000" font-family="Tahoma, sans-serif" font-size="12" lengthAdjust="spacingAndGlyphs" textLength="99" x="883" y="803.1387">@testing-library</text><!--MD5=[a6dfa95bfa5bc208e16ae7303f74ae8a]
entity cypress--><rect fill="#F8F8F8" height="33.9688" rx="3" ry="3" style="stroke: #383838; stroke-width: 1.0;" width="69" x="898" y="623"/><rect fill="#F8F8F8" height="5" style="stroke: #383838; stroke-width: 1.0;" width="10" x="893" y="628"/><rect fill="#F8F8F8" height="5" style="stroke: #383838; stroke-width: 1.0;" width="10" x="893" y="646.9688"/><text fill="#000000" font-family="Tahoma, sans-serif" font-size="12" lengthAdjust="spacingAndGlyphs" textLength="49" x="908" y="644.1387">cypress</text><!--MD5=[bbd3b88120bd9546bee4132cf4a5933c]
entity formik--><rect fill="#F8F8F8" height="33.9688" rx="3" ry="3" style="stroke: #383838; stroke-width: 1.0;" width="58" x="903.5" y="358"/><rect fill="#F8F8F8" height="5" style="stroke: #383838; stroke-width: 1.0;" width="10" x="898.5" y="363"/><rect fill="#F8F8F8" height="5" style="stroke: #383838; stroke-width: 1.0;" width="10" x="898.5" y="381.9688"/><text fill="#000000" font-family="Tahoma, sans-serif" font-size="12" lengthAdjust="spacingAndGlyphs" textLength="38" x="913.5" y="379.1387">formik</text><!--MD5=[e60cab98b4c0ac43f8c316a1fbc16bc1]
entity next--><rect fill="#F8F8F8" height="33.9688" rx="3" ry="3" style="stroke: #383838; stroke-width: 1.0;" width="47" x="909" y="676"/><rect fill="#F8F8F8" height="5" style="stroke: #383838; stroke-width: 1.0;" width="10" x="904" y="681"/><rect fill="#F8F8F8" height="5" style="stroke: #383838; stroke-width: 1.0;" width="10" x="904" y="699.9688"/><text fill="#000000" font-family="Tahoma, sans-serif" font-size="12" lengthAdjust="spacingAndGlyphs" textLength="27" x="919" y="697.1387">next</text><!--MD5=[cb3d66c929489a99ecf6c8633ae21583]
entity react--><rect fill="#F8F8F8" height="33.9688" rx="3" ry="3" style="stroke: #383838; stroke-width: 1.0;" width="53" x="906" y="517"/><rect fill="#F8F8F8" height="5" style="stroke: #383838; stroke-width: 1.0;" width="10" x="901" y="522"/><rect fill="#F8F8F8" height="5" style="stroke: #383838; stroke-width: 1.0;" width="10" x="901" y="540.9688"/><text fill="#000000" font-family="Tahoma, sans-serif" font-size="12" lengthAdjust="spacingAndGlyphs" textLength="33" x="916" y="538.1387">react</text><!--MD5=[755a468fa866bb84bd66ce5531cd63b7]
entity styled-components--><rect fill="#F8F8F8" height="33.9688" rx="3" ry="3" style="stroke: #383838; stroke-width: 1.0;" width="139" x="863" y="252"/><rect fill="#F8F8F8" height="5" style="stroke: #383838; stroke-width: 1.0;" width="10" x="858" y="257"/><rect fill="#F8F8F8" height="5" style="stroke: #383838; stroke-width: 1.0;" width="10" x="858" y="275.9688"/><text fill="#000000" font-family="Tahoma, sans-serif" font-size="12" lengthAdjust="spacingAndGlyphs" textLength="119" x="873" y="273.1387">styled-components</text><!--MD5=[1613aafbc6efd56181a88fdd3180599d]
entity ts-jest--><rect fill="#F8F8F8" height="33.9688" rx="3" ry="3" style="stroke: #383838; stroke-width: 1.0;" width="60" x="902.5" y="729"/><rect fill="#F8F8F8" height="5" style="stroke: #383838; stroke-width: 1.0;" width="10" x="897.5" y="734"/><rect fill="#F8F8F8" height="5" style="stroke: #383838; stroke-width: 1.0;" width="10" x="897.5" y="752.9688"/><text fill="#000000" font-family="Tahoma, sans-serif" font-size="12" lengthAdjust="spacingAndGlyphs" textLength="40" x="912.5" y="750.1387">ts-jest</text><!--MD5=[3f5f1e302270ff33c6a8e06d3fc1db87]
entity zod--><rect fill="#F8F8F8" height="33.9688" rx="3" ry="3" style="stroke: #383838; stroke-width: 1.0;" width="43" x="911" y="411"/><rect fill="#F8F8F8" height="5" style="stroke: #383838; stroke-width: 1.0;" width="10" x="906" y="416"/><rect fill="#F8F8F8" height="5" style="stroke: #383838; stroke-width: 1.0;" width="10" x="906" y="434.9688"/><text fill="#000000" font-family="Tahoma, sans-serif" font-size="12" lengthAdjust="spacingAndGlyphs" textLength="23" x="921" y="432.1387">zod</text><!--MD5=[eec4162e9d2c26d15f7512f0b3f6a186]
entity zod-formik-adapter--><rect fill="#F8F8F8" height="33.9688" rx="3" ry="3" style="stroke: #383838; stroke-width: 1.0;" width="141" x="862" y="464"/><rect fill="#F8F8F8" height="5" style="stroke: #383838; stroke-width: 1.0;" width="10" x="857" y="469"/><rect fill="#F8F8F8" height="5" style="stroke: #383838; stroke-width: 1.0;" width="10" x="857" y="487.9688"/><text fill="#000000" font-family="Tahoma, sans-serif" font-size="12" lengthAdjust="spacingAndGlyphs" textLength="121" x="872" y="485.1387">zod-formik-adapter</text><ellipse cx="536.3501" cy="65.97" fill="#F8F8F8" rx="55.3501" ry="13.47" style="stroke: #383838; stroke-width: 0.5;"/><text fill="#000000" font-family="Tahoma, sans-serif" font-size="12" font-weight="bold" lengthAdjust="spacingAndGlyphs" textLength="78" x="497.3501" y="69.4544">_document</text><ellipse cx="536.2843" cy="393.8774" fill="#F8F8F8" rx="31.2843" ry="12.8774" style="stroke: #383838; stroke-width: 0.5;"/><text fill="#000000" font-family="Tahoma, sans-serif" font-size="12" lengthAdjust="spacingAndGlyphs" textLength="40" x="516.2843" y="397.3618">button</text><ellipse cx="536.3762" cy="776.8774" fill="#F8F8F8" rx="50.3762" ry="12.8774" style="stroke: #383838; stroke-width: 0.5;"/><text fill="#000000" font-family="Tahoma, sans-serif" font-size="12" lengthAdjust="spacingAndGlyphs" textLength="67" x="502.8762" y="780.3618">commands</text><ellipse cx="536.477" cy="731.1954" fill="#F8F8F8" rx="56.477" ry="13.6954" style="stroke: #383838; stroke-width: 0.5;"/><text fill="#000000" font-family="Tahoma, sans-serif" font-size="12" font-weight="bold" lengthAdjust="spacingAndGlyphs" textLength="81" x="495.977" y="734.6798">component</text><ellipse cx="64.8051" cy="474.8774" fill="#F8F8F8" rx="43.3051" ry="12.8774" style="stroke: #383838; stroke-width: 0.5;"/><text fill="#000000" font-family="Tahoma, sans-serif" font-size="12" font-weight="bold" lengthAdjust="spacingAndGlyphs" textLength="57" x="36.3051" y="478.3618">contact</text><ellipse cx="64.7834" cy="287.1567" fill="#F8F8F8" rx="58.7834" ry="14.1567" style="stroke: #383838; stroke-width: 0.5;"/><text fill="#000000" font-family="Tahoma, sans-serif" font-size="12" font-weight="bold" lengthAdjust="spacingAndGlyphs" textLength="87" x="21.2834" y="290.6411">contact.e2e</text><ellipse cx="366.3501" cy="326.97" fill="#F8F8F8" rx="55.3501" ry="13.47" style="stroke: #383838; stroke-width: 0.5;"/><text fill="#000000" font-family="Tahoma, sans-serif" font-size="12" lengthAdjust="spacingAndGlyphs" textLength="78" x="327.3501" y="330.4544">contactForm</text><ellipse cx="536.5122" cy="594.8774" fill="#F8F8F8" rx="44.0122" ry="12.8774" style="stroke: #383838; stroke-width: 0.5;"/><text fill="#000000" font-family="Tahoma, sans-serif" font-size="12" lengthAdjust="spacingAndGlyphs" textLength="58" x="507.5122" y="598.3618">copyright</text><ellipse cx="536.347" cy="116.1694" fill="#F8F8F8" rx="76.347" ry="17.6694" style="stroke: #383838; stroke-width: 0.5;"/><text fill="#000000" font-family="Tahoma, sans-serif" font-size="12" lengthAdjust="spacingAndGlyphs" textLength="129" x="471.847" y="119.6538">createEmotionCache</text><ellipse cx="756.8889" cy="753.7778" fill="#F8F8F8" rx="66.8889" ry="15.7778" style="stroke: #383838; stroke-width: 0.5;"/><text fill="#000000" font-family="Tahoma, sans-serif" font-size="12" font-weight="bold" lengthAdjust="spacingAndGlyphs" textLength="107" x="703.3889" y="757.2621">cypress.config</text><ellipse cx="536.3848" cy="684.8774" fill="#F8F8F8" rx="21.3848" ry="12.8774" style="stroke: #383838; stroke-width: 0.5;"/><text fill="#000000" font-family="Tahoma, sans-serif" font-size="12" font-weight="bold" lengthAdjust="spacingAndGlyphs" textLength="26" x="523.3848" y="688.3618">e2e</text><ellipse cx="65.1335" cy="332.8774" fill="#F8F8F8" rx="46.1335" ry="12.8774" style="stroke: #383838; stroke-width: 0.5;"/><text fill="#000000" font-family="Tahoma, sans-serif" font-size="12" font-weight="bold" lengthAdjust="spacingAndGlyphs" textLength="61" x="34.6335" y="336.3618">fileMock</text><ellipse cx="366.3701" cy="587.8774" fill="#F8F8F8" rx="29.8701" ry="12.8774" style="stroke: #383838; stroke-width: 0.5;"/><text fill="#000000" font-family="Tahoma, sans-serif" font-size="12" lengthAdjust="spacingAndGlyphs" textLength="38" x="347.3701" y="591.3618">footer</text><ellipse cx="536.5122" cy="303.8774" fill="#F8F8F8" rx="44.0122" ry="12.8774" style="stroke: #383838; stroke-width: 0.5;"/><text fill="#000000" font-family="Tahoma, sans-serif" font-size="12" lengthAdjust="spacingAndGlyphs" textLength="58" x="507.5122" y="307.3618">formError</text><ellipse cx="536.6335" cy="348.8774" fill="#F8F8F8" rx="46.1335" ry="12.8774" style="stroke: #383838; stroke-width: 0.5;"/><text fill="#000000" font-family="Tahoma, sans-serif" font-size="12" lengthAdjust="spacingAndGlyphs" textLength="61" x="506.1335" y="352.3618">formLabel</text><ellipse cx="64.7904" cy="377.8774" fill="#F8F8F8" rx="51.7904" ry="12.8774" style="stroke: #383838; stroke-width: 0.5;"/><text fill="#000000" font-family="Tahoma, sans-serif" font-size="12" font-weight="bold" lengthAdjust="spacingAndGlyphs" textLength="69" x="30.2904" y="381.3618">home.e2e</text><!--MD5=[3412f006c5a5bca124ba8ca73504a700]
entity _intro--><rect fill="#F8F8F8" height="33.9688" rx="3" ry="3" style="stroke: #000000; stroke-width: 0.5;" width="48" x="342.5" y="516"/><text fill="#000000" font-family="Tahoma, sans-serif" font-size="12" lengthAdjust="spacingAndGlyphs" textLength="28" x="352.5" y="537.1387">intro</text><ellipse cx="756.8501" cy="997.97" fill="#F8F8F8" rx="55.3501" ry="13.47" style="stroke: #383838; stroke-width: 0.5;"/><text fill="#000000" font-family="Tahoma, sans-serif" font-size="12" font-weight="bold" lengthAdjust="spacingAndGlyphs" textLength="78" x="717.8501" y="1001.4544">jest.config</text><ellipse cx="756.8777" cy="1044.1755" fill="#F8F8F8" rx="53.8777" ry="13.1755" style="stroke: #383838; stroke-width: 0.5;"/><text fill="#000000" font-family="Tahoma, sans-serif" font-size="12" font-weight="bold" lengthAdjust="spacingAndGlyphs" textLength="74" x="719.8777" y="1047.6599">jest.setup</text><ellipse cx="536.5269" cy="957.8774" fill="#F8F8F8" rx="35.5269" ry="12.8774" style="stroke: #383838; stroke-width: 0.5;"/><text fill="#000000" font-family="Tahoma, sans-serif" font-size="12" font-weight="bold" lengthAdjust="spacingAndGlyphs" textLength="46" x="513.5269" y="961.3618">layout</text><ellipse cx="217.3501" cy="286.97" fill="#F8F8F8" rx="55.3501" ry="13.47" style="stroke: #383838; stroke-width: 0.5;"/><text fill="#000000" font-family="Tahoma, sans-serif" font-size="12" font-weight="bold" lengthAdjust="spacingAndGlyphs" textLength="78" x="178.3501" y="290.4544">next-env.d</text><ellipse cx="217.4558" cy="587.8774" fill="#F8F8F8" rx="28.4558" ry="12.8774" style="stroke: #383838; stroke-width: 0.5;"/><text fill="#000000" font-family="Tahoma, sans-serif" font-size="12" font-weight="bold" lengthAdjust="spacingAndGlyphs" textLength="36" x="199.4558" y="591.3618">page</text><ellipse cx="217.5152" cy="333.103" fill="#F8F8F8" rx="53.5152" ry="13.103" style="stroke: #383838; stroke-width: 0.5;"/><text fill="#000000" font-family="Tahoma, sans-serif" font-size="12" font-weight="bold" lengthAdjust="spacingAndGlyphs" textLength="73" x="181.0152" y="336.5874">styleMock</text><ellipse cx="536.5772" cy="639.8774" fill="#F8F8F8" rx="30.5772" ry="12.8774" style="stroke: #383838; stroke-width: 0.5;"/><text fill="#000000" font-family="Tahoma, sans-serif" font-size="12" lengthAdjust="spacingAndGlyphs" textLength="39" x="517.0772" y="643.3618">theme</text><!--MD5=[d57a20575cbf075d325a1b0086fcc1f3]
link <b>_document</b> to @emotion--><path d="M579.661,57.485 C643.55,47.34 763.804,39.54 824,109 C851.291,140.492 811.566,263.785 838,296 C849.723,310.287 868.565,317.104 886.274,320.229 " fill="none" id="&lt;b&gt;_document&lt;/b&gt;-&gt;@emotion" style="stroke: #000000; stroke-width: 1.0;"/><polygon fill="#000000" points="891.232,321.016,882.9708,315.6539,886.2939,320.2318,881.716,323.5549,891.232,321.016" style="stroke: #000000; stroke-width: 1.0;"/><!--MD5=[d6acc2d56dc00a3f932970cdb49d8321]
link <b>_document</b> to createEmotionCache--><path d="M536.5,79.678 C536.5,84.169 536.5,88.659 536.5,93.15 " fill="none" id="&lt;b&gt;_document&lt;/b&gt;-&gt;createEmotionCache" style="stroke: #000000; stroke-width: 1.0;"/><polygon fill="#000000" points="536.5,98.422,540.5,89.422,536.5,93.422,532.5,89.422,536.5,98.422" style="stroke: #000000; stroke-width: 1.0;"/><!--MD5=[c2412ef7b6efeea70f3fbd031a8cb5ca]
link <b>_document</b> to next--><path d="M586.341,71.97 C596.496,75.431 606.172,80.778 613,89 C711.71,207.863 574.857,676.975 690,780 C734.383,819.712 777.348,817.02 824,780 C845.45,762.979 819.146,739.858 838,720 C854.945,702.153 882.876,695.874 903.806,693.777 " fill="none" id="&lt;b&gt;_document&lt;/b&gt;-&gt;next" style="stroke: #000000; stroke-width: 1.0;"/><polygon fill="#000000" points="908.965,693.329,899.6534,690.1205,903.9836,693.7604,900.3437,698.0906,908.965,693.329" style="stroke: #000000; stroke-width: 1.0;"/><!--MD5=[c8933fe95a88aba5834536ef84eb6f28]
link <b>_document</b> to react--><path d="M579.579,74.53 C590.962,77.955 602.913,82.647 613,89 C730.379,162.931 768.941,191.673 824,319 C840.716,357.656 811.298,475.432 838,508 C852.969,526.257 879.564,532.317 900.573,534.063 " fill="none" id="&lt;b&gt;_document&lt;/b&gt;-&gt;react" style="stroke: #000000; stroke-width: 1.0;"/><polygon fill="#000000" points="905.784,534.419,897.0781,529.8138,900.7957,534.0776,896.5319,537.7951,905.784,534.419" style="stroke: #000000; stroke-width: 1.0;"/><!--MD5=[49152d56d5ec895df3ae78e5828d0dd4]
link <b>_document</b> to styled-components--><path d="M560.932,53.85 C612.932,28.75 740.006,-22.13 824,32 C899.849,80.883 922.779,197.744 929.195,246.762 " fill="none" id="&lt;b&gt;_document&lt;/b&gt;-&gt;styled-components" style="stroke: #000000; stroke-width: 1.0;"/><polygon fill="#000000" points="929.833,251.844,932.6808,242.4158,929.2102,246.8829,924.7431,243.4123,929.833,251.844" style="stroke: #000000; stroke-width: 1.0;"/><!--MD5=[bfa49ddd06828275335da7c3638b8b13]
link <b>_document</b> to theme--><path d="M484.345,70.701 C467.293,75.139 450.346,83.379 441,98.5 C426.104,122.602 426.104,584.398 441,608.5 C453.321,628.436 478.979,636.126 500.6,638.93 " fill="none" id="&lt;b&gt;_document&lt;/b&gt;-&gt;theme" style="stroke: #000000; stroke-width: 1.0;"/><polygon fill="#000000" points="505.713,639.515,497.2247,634.5201,500.7453,638.948,496.3174,642.4685,505.713,639.515" style="stroke: #000000; stroke-width: 1.0;"/><!--MD5=[097583428a88952b38256feebbe9ec9a]
link button to react--><path d="M563.841,387.236 C619.911,374.575 751.828,354.302 824,422 C852.244,448.494 812.162,479.155 838,508 C853.649,525.47 879.925,531.628 900.644,533.611 " fill="none" id="button-&gt;react" style="stroke: #000000; stroke-width: 0.5;"/><polygon fill="#000000" points="905.782,534.03,897.1376,529.3104,900.7986,533.6228,896.4861,537.2838,905.782,534.03" style="stroke: #000000; stroke-width: 0.5;"/><!--MD5=[cf946ab668b8e4abb7b9a15ba2270077]
link <b>component</b> to commands--><path d="M536.5,744.541 C536.5,749.232 536.5,753.923 536.5,758.613 " fill="none" id="&lt;b&gt;component&lt;/b&gt;-&gt;commands" style="stroke: #000000; stroke-width: 1.0;"/><polygon fill="#000000" points="536.5,763.703,540.5,754.703,536.5,758.703,532.5,754.703,536.5,763.703" style="stroke: #000000; stroke-width: 1.0;"/><!--MD5=[fc84c09c901f1fae085b57ac561ebdd4]
link <b>component</b> to cypress--><path d="M577.813,721.689 C653.851,704.127 817.531,666.323 892.526,649.002 " fill="none" id="&lt;b&gt;component&lt;/b&gt;-&gt;cypress" style="stroke: #000000; stroke-width: 1.0;"/><polygon fill="#000000" points="897.77,647.79,888.1005,645.9191,892.8984,648.9158,889.9017,653.7137,897.77,647.79" style="stroke: #000000; stroke-width: 1.0;"/><!--MD5=[c17fb61fa5fb952b353f5d59f0f88b9c]
link <b>contact</b> to contactForm--><path d="M88.5112,463.876 C142.076,437.407 277.067,370.7 336.568,341.297 " fill="none" id="&lt;b&gt;contact&lt;/b&gt;-&gt;contactForm" style="stroke: #000000; stroke-width: 1.0;"/><polygon fill="#000000" points="341.062,339.076,331.2213,339.478,336.5796,341.2915,334.7661,346.6498,341.062,339.076" style="stroke: #000000; stroke-width: 1.0;"/><!--MD5=[3dc60b26d16f14820e1eeb7272d956d2]
link <b>contact</b> to next--><path d="M68.1355,488.198 C80.8228,561.575 153.098,916 365.5,916 C365.5,916 365.5,916 652,916 C729.599,916 771.612,943.245 824,886 C848.993,858.69 814.524,748.624 838,720 C853.772,700.77 882.319,694.727 903.736,693.065 " fill="none" id="&lt;b&gt;contact&lt;/b&gt;-&gt;next" style="stroke: #000000; stroke-width: 1.0;"/><polygon fill="#000000" points="908.739,692.745,899.5015,689.3292,903.7492,693.065,900.0134,697.3128,908.739,692.745" style="stroke: #000000; stroke-width: 1.0;"/><!--MD5=[2be3a5e78f47e84964c1cb8caf015971]
link <b>contact</b> to react--><path d="M108.653,475 C166.743,475 273.986,475 365.5,475 C365.5,475 365.5,475 652,475 C700.599,475 838.606,509.581 900.637,525.794 " fill="none" id="&lt;b&gt;contact&lt;/b&gt;-&gt;react" style="stroke: #000000; stroke-width: 1.0;"/><polygon fill="#000000" points="905.684,527.116,897.9914,520.9659,900.8472,525.8489,895.9641,528.7047,905.684,527.116" style="stroke: #000000; stroke-width: 1.0;"/><!--MD5=[583a6492ea37871898a9480b661afe88]
link contactForm to button--><path d="M390.207,339.389 C408.643,349.117 435.507,362.552 460,372 C474.181,377.47 490.306,382.343 504.003,386.104 " fill="none" id="contactForm-&gt;button" style="stroke: #000000; stroke-width: 0.5;"/><polygon fill="#000000" points="508.931,387.438,501.2877,381.2268,504.1045,386.1324,499.1988,388.9492,508.931,387.438" style="stroke: #000000; stroke-width: 0.5;"/><!--MD5=[13248366ce144c3ea951fc9094e3f26a]
link contactForm to formError--><path d="M415.193,320.471 C439.002,317.211 467.631,313.292 490.987,310.094 " fill="none" id="contactForm-&gt;formError" style="stroke: #000000; stroke-width: 0.5;"/><polygon fill="#000000" points="496.191,309.382,486.7315,306.6403,491.2372,310.0605,487.817,314.5663,496.191,309.382" style="stroke: #000000; stroke-width: 0.5;"/><!--MD5=[3de484346e0570abc68c80361310c37a]
link contactForm to formik--><path d="M373.159,313.478 C384.886,287.47 414.594,231.1 460,209 C521.142,179.24 545.062,206.107 613,209 C707.033,213.004 756.485,161.425 824,227 C863.151,265.026 802.552,307.5 838,349 C852.729,366.243 877.815,372.542 898.297,374.638 " fill="none" id="contactForm-&gt;formik" style="stroke: #000000; stroke-width: 0.5;"/><polygon fill="#000000" points="903.396,375.084,894.7789,370.3148,898.415,374.6482,894.0816,378.2843,903.396,375.084" style="stroke: #000000; stroke-width: 0.5;"/><!--MD5=[c340a6ff518d04b36dda671f954e61c6]
link contactForm to formLabel--><path d="M415.642,333.304 C438.809,336.338 466.455,339.958 489.355,342.957 " fill="none" id="contactForm-&gt;formLabel" style="stroke: #000000; stroke-width: 0.5;"/><polygon fill="#000000" points="494.466,343.626,486.061,338.4922,489.5083,342.9773,485.0231,346.4246,494.466,343.626" style="stroke: #000000; stroke-width: 0.5;"/><!--MD5=[7fbe314e9e70fc260042bdb05ef47b6b]
link contactForm to react--><path d="M376.751,340.466 C391.635,360.923 423.008,399.313 460,417 C533.508,452.146 761.724,408.461 824,461 C840.659,475.055 822.448,492.729 838,508 C854.624,524.323 880.57,530.598 900.916,532.918 " fill="none" id="contactForm-&gt;react" style="stroke: #000000; stroke-width: 0.5;"/><polygon fill="#000000" points="905.959,533.426,897.4054,528.5438,900.9842,532.9247,896.6033,536.5034,905.959,533.426" style="stroke: #000000; stroke-width: 0.5;"/><!--MD5=[e1b05d139695a4b4f469e9f716baf3b3]
link contactForm to zod--><path d="M377.687,313.725 C393.094,294.868 424.336,261.157 460,248 C497.991,233.985 795.117,237.618 824,266 C845.67,287.295 818.402,378.784 838,402 C854.501,421.548 884.317,427.054 905.85,428.298 " fill="none" id="contactForm-&gt;zod" style="stroke: #000000; stroke-width: 0.5;"/><polygon fill="#000000" points="910.858,428.521,902.044,424.1263,905.8629,428.2995,901.6897,432.1184,910.858,428.521" style="stroke: #000000; stroke-width: 0.5;"/><!--MD5=[3ad1013d4da561f299d39e5dfa8d780c]
link contactForm to zod-formik-adapter--><path d="M386.737,314.415 C404.806,303.399 433.026,288.213 460,282 C539.231,263.75 768.585,259.504 824,319 C844.707,341.232 818.402,431.784 838,455 C843.22,461.184 849.773,465.963 856.974,469.646 " fill="none" id="contactForm-&gt;zod-formik-adapter" style="stroke: #000000; stroke-width: 0.5;"/><polygon fill="#000000" points="861.536,471.8,855.1066,464.3393,857.015,469.6645,851.6898,471.5729,861.536,471.8" style="stroke: #000000; stroke-width: 0.5;"/><!--MD5=[54009ed89ef288d092b873ee50123436]
link copyright to @mui--><path d="M577.615,599.841 C599.305,602.218 626.579,604.819 651,606 C727.799,609.713 747.405,612.717 824,606 C850.043,603.716 879.232,598.377 900.616,593.938 " fill="none" id="copyright-&gt;@mui" style="stroke: #000000; stroke-width: 0.5;"/><polygon fill="#000000" points="905.602,592.89,895.9716,590.8271,900.7089,593.9186,897.6174,598.6559,905.602,592.89" style="stroke: #000000; stroke-width: 0.5;"/><!--MD5=[3c0f5a1b721df4808adf014230d5ac9c]
link copyright to next--><path d="M577.391,600.165 C590.026,603.502 603.232,608.987 613,618 C681.481,681.187 612.958,760.591 690,813 C739.242,846.498 778.862,851.851 824,813 C855.68,785.732 810.453,751.437 838,720 C854.219,701.491 882.25,695.303 903.401,693.408 " fill="none" id="copyright-&gt;next" style="stroke: #000000; stroke-width: 0.5;"/><polygon fill="#000000" points="908.619,693.014,899.3439,689.7016,903.6331,693.3897,899.945,697.679,908.619,693.014" style="stroke: #000000; stroke-width: 0.5;"/><!--MD5=[1e884f65e442d24a35fa9379f9bff658]
link copyright to react--><path d="M580.927,594.874 C637.684,593.78 739.769,588.612 824,567 C830.557,565.318 831.625,563.277 838,561 C858.653,553.624 882.399,546.787 900.792,541.838 " fill="none" id="copyright-&gt;react" style="stroke: #000000; stroke-width: 0.5;"/><polygon fill="#000000" points="905.831,540.494,896.1042,538.9484,900.9999,541.7825,898.1658,546.6782,905.831,540.494" style="stroke: #000000; stroke-width: 0.5;"/><!--MD5=[ef7fa7b18787b22d6172ec078bc01b05]
link createEmotionCache to @emotion--><path d="M592.6,104.094 C657.623,93.613 764.41,88.223 824,149 C846.973,172.431 816.929,270.844 838,296 C849.867,310.167 868.73,316.967 886.415,320.113 " fill="none" id="createEmotionCache-&gt;@emotion" style="stroke: #000000; stroke-width: 0.5;"/><polygon fill="#000000" points="891.365,320.906,883.1116,315.5319,886.428,320.1146,881.8453,323.4311,891.365,320.906" style="stroke: #000000; stroke-width: 0.5;"/><!--MD5=[13248047637bfcfe6d07d26171453187]
link <b>cypress.config</b> to cypress--><path d="M799.227,741.449 C808.487,736.931 817.486,730.919 824,723 C840.297,703.187 820.19,685.466 838,667 C852.152,652.327 873.734,645.487 892.598,642.357 " fill="none" id="&lt;b&gt;cypress.config&lt;/b&gt;-&gt;cypress" style="stroke: #000000; stroke-width: 1.0;"/><polygon fill="#000000" points="897.838,641.569,888.3436,638.9506,892.8935,642.3119,889.5322,646.8618,897.838,641.569" style="stroke: #000000; stroke-width: 1.0;"/><!--MD5=[aa8f1145b4a5ac18a16dbb3711de41f5]
link <b>e2e</b> to commands--><path d="M514.636,685.082 C491.473,686.523 456.192,692.918 441,717.5 C434.691,727.708 434.691,734.292 441,744.5 C450.095,759.216 466.391,767.415 482.975,771.934 " fill="none" id="&lt;b&gt;e2e&lt;/b&gt;-&gt;commands" style="stroke: #000000; stroke-width: 1.0;"/><polygon fill="#000000" points="488.124,773.222,480.3633,767.1581,483.2734,772.009,478.4225,774.9191,488.124,773.222" style="stroke: #000000; stroke-width: 1.0;"/><!--MD5=[b1e7de6ff2b8b844a23712f41a135b4b]
link footer to copyright--><path d="M396.38,589.203 C421.478,590.249 458.33,591.785 487.801,593.013 " fill="none" id="footer-&gt;copyright" style="stroke: #000000; stroke-width: 0.5;"/><polygon fill="#000000" points="492.838,593.222,484.0127,588.8501,487.8424,593.0134,483.679,596.8431,492.838,593.222" style="stroke: #000000; stroke-width: 0.5;"/><!--MD5=[5f4753d28152e350f770fcc6a968c645]
link footer to react--><path d="M394.539,583.043 C412.941,579.81 437.876,575.705 460,573 C625.608,552.755 825.255,540.084 900.661,535.713 " fill="none" id="footer-&gt;react" style="stroke: #000000; stroke-width: 0.5;"/><polygon fill="#000000" points="905.873,535.413,896.6581,531.9365,900.8813,535.7002,897.1176,539.9233,905.873,535.413" style="stroke: #000000; stroke-width: 0.5;"/><!--MD5=[ef45a9affa38e723ef148ac50baf4e97]
link formError to react--><path d="M580.592,305.16 C652.39,308.063 791.815,318.156 824,353 C847.466,378.405 815.857,481.433 838,508 C853.116,526.136 879.697,532.207 900.664,533.989 " fill="none" id="formError-&gt;react" style="stroke: #000000; stroke-width: 0.5;"/><polygon fill="#000000" points="905.863,534.354,897.1664,529.7313,900.8754,534.0025,896.6041,537.7115,905.863,534.354" style="stroke: #000000; stroke-width: 0.5;"/><!--MD5=[7c300a6e4fe0cbfef09174a57d989667]
link formLabel to react--><path d="M582.4,347.997 C654.453,347.411 791.154,350.853 824,384 C863.038,423.396 802.017,465.796 838,508 C853.317,525.966 879.88,532.054 900.788,533.884 " fill="none" id="formLabel-&gt;react" style="stroke: #000000; stroke-width: 0.5;"/><polygon fill="#000000" points="905.971,534.262,897.2863,529.617,900.9843,533.8977,896.7035,537.5957,905.971,534.262" style="stroke: #000000; stroke-width: 0.5;"/><!--MD5=[8dc17a7f374135dc413914f71b045209]
link _intro to react--><path d="M390.661,533.041 C479.652,533.199 799.669,533.766 900.705,533.945 " fill="none" id="_intro-&gt;react" style="stroke: #000000; stroke-width: 0.5;"/><polygon fill="#000000" points="905.916,533.955,896.9229,529.9396,900.916,533.9464,896.9092,537.9396,905.916,533.955" style="stroke: #000000; stroke-width: 0.5;"/><!--MD5=[f1d77b9da2c3569e5b0c9f5d714394d3]
link <b>jest.config</b> to ts-jest--><path d="M797.422,988.7009 C807.649,984.3831 817.582,978.1041 824,969 C849.16,933.31 810.526,806.94 838,773 C852.112,755.567 876.73,748.953 897.164,746.626 " fill="none" id="&lt;b&gt;jest.config&lt;/b&gt;-&gt;ts-jest" style="stroke: #000000; stroke-width: 1.0;"/><polygon fill="#000000" points="902.26,746.123,892.9104,743.027,897.2842,746.6144,893.6967,750.9882,902.26,746.123" style="stroke: #000000; stroke-width: 1.0;"/><!--MD5=[bd2d0e661804e691d33ed3c4116db3fe]
link <b>jest.setup</b> to @testing-library--><path d="M798.413,1035.4889 C807.587,1032.1231 816.751,1027.456 824,1021 C886.382,965.4442 916.113,865.654 926.731,821.3 " fill="none" id="&lt;b&gt;jest.setup&lt;/b&gt;-&gt;@testing-library" style="stroke: #000000; stroke-width: 1.0;"/><polygon fill="#000000" points="927.932,816.172,921.9855,824.023,926.7921,821.0403,929.7748,825.8469,927.932,816.172" style="stroke: #000000; stroke-width: 1.0;"/><!--MD5=[a5fc515d440feb29affdd3dfb1cb809f]
link <b>layout</b> to next--><path d="M571.718,959.9013 C640.078,962.8953 789.906,965.1621 824,930 C856.557,896.422 808.66,756.422 838,720 C853.602,700.632 882.175,694.61 903.644,692.99 " fill="none" id="&lt;b&gt;layout&lt;/b&gt;-&gt;next" style="stroke: #000000; stroke-width: 1.0;"/><polygon fill="#000000" points="908.66,692.681,899.4313,689.2415,903.6694,692.9882,899.9227,697.2264,908.66,692.681" style="stroke: #000000; stroke-width: 1.0;"/><!--MD5=[2a9e0ecc2a793fa17ecd81db0216e6c2]
link <b>page</b> to footer--><path d="M246.15,588 C270.32,588 305.506,588 331.414,588 " fill="none" id="&lt;b&gt;page&lt;/b&gt;-&gt;footer" style="stroke: #000000; stroke-width: 1.0;"/><polygon fill="#000000" points="336.466,588,327.466,584,331.466,588,327.466,592,336.466,588" style="stroke: #000000; stroke-width: 1.0;"/><!--MD5=[89a7ebd57be1aa885041f09c66621658]
link <b>page</b> to _intro--><path d="M240.19,579.885 C266.01,570.224 309.186,554.07 337.504,543.475 " fill="none" id="&lt;b&gt;page&lt;/b&gt;-&gt;_intro" style="stroke: #000000; stroke-width: 1.0;"/><polygon fill="#000000" points="342.263,541.694,332.4321,541.1002,337.5798,543.4455,335.2345,548.5933,342.263,541.694" style="stroke: #000000; stroke-width: 1.0;"/><!--MD5=[d38e151cd6a2a49945f6fe1a320545d8]
link <b>page</b> to next--><path d="M224.482,600.791 C251.617,656.721 369.053,877 535.5,877 C535.5,877 535.5,877 652,877 C729.839,877 771.123,901.121 824,844 C861.676,803.3 802.226,762.382 838,720 C853.974,701.075 882.309,694.97 903.612,693.209 " fill="none" id="&lt;b&gt;page&lt;/b&gt;-&gt;next" style="stroke: #000000; stroke-width: 1.0;"/><polygon fill="#000000" points="908.865,692.85,899.6129,689.4739,903.8767,693.1914,900.1591,697.4552,908.865,692.85" style="stroke: #000000; stroke-width: 1.0;"/><!--MD5=[cbed822238a433bc2cc46bd62e7da273]
link theme to @mui--><path d="M566.963,638.619 C619.092,635.866 730.868,628.568 824,613 C850.124,608.633 879.307,601.423 900.667,595.702 " fill="none" id="theme-&gt;@mui" style="stroke: #000000; stroke-width: 0.5;"/><polygon fill="#000000" points="905.648,594.357,895.9166,592.8404,900.8207,595.6599,898.0012,600.564,905.648,594.357" style="stroke: #000000; stroke-width: 0.5;"/><!--MD5=[52b1bd7284df9c49b93143da3f8691c6]
link <b>contact.e2e</b> to <b>fileMock</b>--><!--MD5=[b49554653a07071c2296cae68b110d73]
link <b>fileMock</b> to <b>home.e2e</b>--><!--MD5=[dee4abc23b9441052bc0318f494972bb]
link <b>contact.e2e</b> to <b>next-env.d</b>--><!--MD5=[b887148111f66c28369531df812bc0b0]
link <b>next-env.d</b> to <b>styleMock</b>--><script type="text/plantuml"><![CDATA[MD5=[39cb9dc64515fa97be9001885432167b]
@startuml

scale max 1920 width
left to right direction

skinparam nodesep 19
skinparam ranksep 38
skinparam monochrome true
skinparam shadowing false
skinparam defaultFontName Tahoma
skinparam defaultFontSize 12
skinparam roundCorner 6
skinparam dpi 150
skinparam arrowColor black
skinparam arrowThickness 0.5
skinparam packageTitleAlignment left

skinparam usecase {
  borderThickness 0.5
}

skinparam rectangle {
  borderThickness 0.5
}

skinparam component {
  borderThickness 1
}


(<b>_document</b>)
(button)
(commands)
(<b>component</b>)
(<b>contact</b>)
(<b>contact.e2e</b>)
(contactForm)
(copyright)
(createEmotionCache)
(<b>cypress.config</b>)
(<b>e2e</b>)
(<b>fileMock</b>)
(footer)
(formError)
(formLabel)
(<b>home.e2e</b>)
rectangle "intro" as _intro
(<b>jest.config</b>)
(<b>jest.setup</b>)
(<b>layout</b>)
(<b>next-env.d</b>)
(<b>page</b>)
(<b>styleMock</b>)
(theme)

package "Dependencies" {
  [@emotion]
  [@mui]
  [@testing-library]
  [cypress]
  [formik]
  [next]
  [react]
  [styled-components]
  [ts-jest]
  [zod]
  [zod-formik-adapter]
}

(<b>_document</b>) ----[thickness=1]> [@emotion]
(<b>_document</b>) -[thickness=1]> (createEmotionCache)
(<b>_document</b>) ----[thickness=1]> [next]
(<b>_document</b>) ----[thickness=1]> [react]
(<b>_document</b>) ----[thickness=1]> [styled-components]
(<b>_document</b>) -[thickness=1]> (theme)
(button) ----> [react]
(<b>component</b>) -[thickness=1]> (commands)
(<b>component</b>) ----[thickness=1]> [cypress]
(<b>contact</b>) ---[thickness=1]> (contactForm)
(<b>contact</b>) ----[thickness=1]> [next]
(<b>contact</b>) ----[thickness=1]> [react]
(contactForm) --> (button)
(contactForm) --> (formError)
(contactForm) ----> [formik]
(contactForm) --> (formLabel)
(contactForm) ----> [react]
(contactForm) ----> [zod]
(contactForm) ----> [zod-formik-adapter]
(copyright) ----> [@mui]
(copyright) ----> [next]
(copyright) ----> [react]
(createEmotionCache) ---> [@emotion]
(<b>cypress.config</b>) --[thickness=1]> [cypress]
(<b>e2e</b>) -[thickness=1]> (commands)
(footer) --> (copyright)
(footer) ----> [react]
(formError) ----> [react]
(formLabel) ----> [react]
_intro ----> [react]
(<b>jest.config</b>) --[thickness=1]> [ts-jest]
(<b>jest.setup</b>) --[thickness=1]> [@testing-library]
(<b>layout</b>) ----[thickness=1]> [next]
(<b>page</b>) --[thickness=1]> (footer)
(<b>page</b>) --[thickness=1]> _intro
(<b>page</b>) ----[thickness=1]> [next]
(theme) ---> [@mui]

@enduml


' View and edit on https://arkit.pro
]]></script></g></svg>